HIERARCHY
ROOT Hips
{
	OFFSET 8.91173 92.52490 -21.95620
	CHANNELS 6 Xposition Yposition Zposition Zrotation Xrotation Yrotation
	JOINT Spine
	{
		OFFSET 0.00000 14.09320 -1.51142
		CHANNELS 3 Zrotation Xrotation Yrotation
		JOINT Spine1
		{
			OFFSET 0.00000 8.69660 0.00000
			CHANNELS 3 Zrotation Xrotation Yrotation
			JOINT Spine2
			{
				OFFSET 0.00000 8.69660 0.00000
				CHANNELS 3 Zrotation Xrotation Yrotation
				JOINT Spine3
				{
					OFFSET 0.00000 8.69660 0.00000
					CHANNELS 3 Zrotation Xrotation Yrotation
					JOINT Neck
					{
						OFFSET 0.00000 11.18130 1.11813
						CHANNELS 3 Zrotation Xrotation Yrotation
						JOINT Neck1
						{
							OFFSET 0.00000 5.70631 0.00000
							CHANNELS 3 Zrotation Xrotation Yrotation
							JOINT Head
							{
								OFFSET 0.00000 5.70631 0.00000
								CHANNELS 3 Zrotation Xrotation Yrotation
								End site
								{
									OFFSET 0.00000 9.71257 0.00000
								}
							}
						}
					}
					JOINT RightShoulder
					{
						OFFSET 0.00000 7.98668 5.19711
						CHANNELS 3 Zrotation Xrotation Yrotation
						JOINT RightArm
						{
							OFFSET 0.00000 18.31580 0.00000
							CHANNELS 3 Zrotation Xrotation Yrotation
							JOINT RightForeArm
							{
								OFFSET 0.00000 28.87420 0.00000
								CHANNELS 3 Zrotation Xrotation Yrotation
								JOINT RightHand
								{
									OFFSET 0.00000 23.87720 0.00000
									CHANNELS 3 Zrotation Xrotation Yrotation
									JOINT RightHandThumb1
									{
										OFFSET -2.41094 4.67063 3.47303
										CHANNELS 3 Zrotation Xrotation Yrotation
										JOINT RightHandThumb2
										{
											OFFSET 0.00000 3.95207 0.00000
											CHANNELS 3 Zrotation Xrotation Yrotation
											JOINT RightHandThumb3
											{
												OFFSET 0.00000 2.15568 0.00000
												CHANNELS 3 Zrotation Xrotation Yrotation
												End site
												{
													OFFSET 0.00000 1.91616 0.00000
												}
											}
										}
									}
									JOINT RightHandIndex1
									{
										OFFSET 0.00000 12.45500 2.51496
										CHANNELS 3 Zrotation Xrotation Yrotation
										JOINT RightHandIndex2
										{
											OFFSET 0.00000 4.79039 0.00000
											CHANNELS 3 Zrotation Xrotation Yrotation
											JOINT RightHandIndex3
											{
												OFFSET 0.00000 2.63472 0.00000
												CHANNELS 3 Zrotation Xrotation Yrotation
												End site
												{
													OFFSET 0.00000 1.91616 0.00000
												}
											}
										}
									}
									JOINT RightHandMiddle1
									{
										OFFSET 0.00000 12.45500 -0.07984
										CHANNELS 3 Zrotation Xrotation Yrotation
										JOINT RightHandMiddle2
										{
											OFFSET 0.00000 5.38919 0.00000
											CHANNELS 3 Zrotation Xrotation Yrotation
											JOINT RightHandMiddle3
											{
												OFFSET 0.00000 3.11376 0.00000
												CHANNELS 3 Zrotation Xrotation Yrotation
												End site
												{
													OFFSET 0.00000 2.03592 0.00000
												}
											}
										}
									}
									JOINT RightHandRing1
									{
										OFFSET 0.00000 11.07780 -2.67464
										CHANNELS 3 Zrotation Xrotation Yrotation
										JOINT RightHandRing2
										{
											OFFSET 0.00000 4.91015 0.00000
											CHANNELS 3 Zrotation Xrotation Yrotation
											JOINT RightHandRing3
											{
												OFFSET 0.00000 3.11376 0.00000
												CHANNELS 3 Zrotation Xrotation Yrotation
												End site
												{
													OFFSET 0.00000 2.03592 0.00000
												}
											}
										}
									}
									JOINT RightHandPinky1
									{
										OFFSET 0.00000 9.70055 -5.26943
										CHANNELS 3 Zrotation Xrotation Yrotation
										JOINT RightHandPinky2
										{
											OFFSET 0.00000 3.95207 0.00000
											CHANNELS 3 Zrotation Xrotation Yrotation
											JOINT RightHandPinky3
											{
												OFFSET 0.00000 2.15568 0.00000
												CHANNELS 3 Zrotation Xrotation Yrotation
												End site
												{
													OFFSET 0.00000 1.91616 0.00000
												}
											}
										}
									}
								}
							}
						}
					}
					JOINT LeftShoulder
					{
						OFFSET 0.00000 7.98668 5.19711
						CHANNELS 3 Zrotation Xrotation Yrotation
						JOINT LeftArm
						{
							OFFSET 0.00000 18.31580 0.00000
							CHANNELS 3 Zrotation Xrotation Yrotation
							JOINT LeftForeArm
							{
								OFFSET 0.00000 28.87420 0.00000
								CHANNELS 3 Zrotation Xrotation Yrotation
								JOINT LeftHand
								{
									OFFSET 0.00000 23.87720 0.00000
									CHANNELS 3 Zrotation Xrotation Yrotation
									JOINT LeftHandThumb1
									{
										OFFSET 2.41094 4.67063 3.47303
										CHANNELS 3 Zrotation Xrotation Yrotation
										JOINT LeftHandThumb2
										{
											OFFSET 0.00000 3.95207 0.00000
											CHANNELS 3 Zrotation Xrotation Yrotation
											JOINT LeftHandThumb3
											{
												OFFSET 0.00000 2.15568 0.00000
												CHANNELS 3 Zrotation Xrotation Yrotation
												End site
												{
													OFFSET 0.00000 1.60000 0.00000
												}
											}
										}
									}
									JOINT LeftHandIndex1
									{
										OFFSET 0.00000 12.45500 2.51496
										CHANNELS 3 Zrotation Xrotation Yrotation
										JOINT LeftHandIndex2
										{
											OFFSET 0.00000 4.79039 0.00000
											CHANNELS 3 Zrotation Xrotation Yrotation
											JOINT LeftHandIndex3
											{
												OFFSET 0.00000 2.63472 0.00000
												CHANNELS 3 Zrotation Xrotation Yrotation
												End site
												{
													OFFSET 0.00000 1.91616 0.00000
												}
											}
										}
									}
									JOINT LeftHandMiddle1
									{
										OFFSET 0.00000 12.45500 -0.07984
										CHANNELS 3 Zrotation Xrotation Yrotation
										JOINT LeftHandMiddle2
										{
											OFFSET 0.00000 5.38919 0.00000
											CHANNELS 3 Zrotation Xrotation Yrotation
											JOINT LeftHandMiddle3
											{
												OFFSET 0.00000 3.11376 0.00000
												CHANNELS 3 Zrotation Xrotation Yrotation
												End site
												{
													OFFSET 0.00000 2.03592 0.00000
												}
											}
										}
									}
									JOINT LeftHandRing1
									{
										OFFSET 0.00000 11.07780 -2.67464
										CHANNELS 3 Zrotation Xrotation Yrotation
										JOINT LeftHandRing2
										{
											OFFSET 0.00000 4.91015 0.00000
											CHANNELS 3 Zrotation Xrotation Yrotation
											JOINT LeftHandRing3
											{
												OFFSET 0.00000 3.11376 0.00000
												CHANNELS 3 Zrotation Xrotation Yrotation
												End site
												{
													OFFSET 0.00000 2.03592 0.00000
												}
											}
										}
									}
									JOINT LeftHandPinky1
									{
										OFFSET 0.00000 9.70055 -5.26943
										CHANNELS 3 Zrotation Xrotation Yrotation
										JOINT LeftHandPinky2
										{
											OFFSET 0.00000 3.95207 0.00000
											CHANNELS 3 Zrotation Xrotation Yrotation
											JOINT LeftHandPinky3
											{
												OFFSET 0.00000 2.15568 0.00000
												CHANNELS 3 Zrotation Xrotation Yrotation
												End site
												{
													OFFSET 0.00000 1.91616 0.00000
												}
											}
										}
									}
								}
							}
						}
					}
				}
			}
		}
	}
	JOINT RightUpLeg
	{
		OFFSET -10.06560 0.00000 0.00000
		CHANNELS 3 Zrotation Xrotation Yrotation
		JOINT RightLeg
		{
			OFFSET 0.00000 -42.98740 0.00000
			CHANNELS 3 Zrotation Xrotation Yrotation
			JOINT RightFoot
			{
				OFFSET 0.00000 -44.62500 0.00000
				CHANNELS 3 Zrotation Xrotation Yrotation
				JOINT RightForeFoot
				{
					OFFSET 0.00000 -3.74821 0.00000
					CHANNELS 3 Zrotation Xrotation Yrotation
					JOINT RightToeBase
					{
						OFFSET 0.00000 0.00000 14.67920
						CHANNELS 3 Zrotation Xrotation Yrotation
						End site
						{
							OFFSET 0.00000 0.00000 10.36040
						}
					}
				}
			}
		}
	}
	JOINT LeftUpLeg
	{
		OFFSET 10.06560 0.00000 0.00000
		CHANNELS 3 Zrotation Xrotation Yrotation
		JOINT LeftLeg
		{
			OFFSET 0.00000 -42.98740 0.00000
			CHANNELS 3 Zrotation Xrotation Yrotation
			JOINT LeftFoot
			{
				OFFSET 0.00000 -44.62500 0.00000
				CHANNELS 3 Zrotation Xrotation Yrotation
				JOINT LeftForeFoot
				{
					OFFSET 0.00000 -3.74821 0.00000
					CHANNELS 3 Zrotation Xrotation Yrotation
					JOINT LeftToeBase
					{
						OFFSET 0.00000 0.00000 14.67920
						CHANNELS 3 Zrotation Xrotation Yrotation
						End site
						{
							OFFSET 0.00000 0.00000 10.67280
						}
					}
				}
			}
		}
	}
}
MOTION
Frames: 6
Frame Time: 0.166666667
25.9114 89.0122 -62.4108 -0.764977 -0.546001 -170.885 -1.02281 -2.83151 -0.459159 -0.96114 3.44213 0.275341 -1.08919 -1.78686 -3.37953 1.8925 1.28976 -1.53049 1.90258 11.0128 -3.01813 0.704659 -3.06208 -6.03647 1.68516 -18.7455 -0.549617 90 0 0 73.8811 5.7557 -11.5383 6.14276e-05 83.611 32.2709 18.8163 -10.271 1.17673e-05 20.3584 -8.64982 3.19419 3.18055e-15 3.18055e-15 -0.0 -9.54166e-15 -6.36111e-15 4.77083e-15 -50.4651 1.59028e-15 1.59028e-15 3.18055e-15 1.59028e-15 -1.59028e-15 3.18055e-15 0.0 -0.0 -56.7203 3.18055e-15 3.18055e-15 6.36111e-15 4.77083e-15 -0.0 -3.18055e-15 3.18055e-15 -1.59028e-15 -39.0834 0.0 3.18055e-15 0.0 3.18055e-15 -0.0 -3.18055e-15 -4.77083e-15 -7.95139e-16 116.756 -4.77083e-15 -3.18055e-15 -3.18055e-15 0.0 -0.0 -4.41391e-32 1.59028e-15 1.59028e-15 -90 0 0 -81.8552 22.946 45.3537 -180.0 86.9053 -178.783 -13.8889 -14.0846 3.52629e-08 -44.2946 -14.2739 -13.526 -1.10348e-32 1.98785e-16 3.18055e-15 -1.59028e-15 -2.98177e-16 -7.95139e-16 -35.4585 -5.1684e-15 -1.59028e-14 -6.36111e-15 -3.97569e-15 -0.0 -3.18055e-15 1.98785e-15 3.18055e-15 -93.441 1.74931e-14 -3.65764e-14 -1.27222e-14 -7.95139e-15 -3.18055e-15 -3.18055e-15 4.77083e-15 -0.0 -84.1775 7.95139e-15 -3.81667e-14 -3.18055e-15 3.97569e-15 6.36111e-15 -8.82781e-32 -1.59028e-15 -3.18055e-15 -105.602 2.06736e-14 -3.4191e-14 -3.18055e-15 -6.36111e-15 -7.15625e-15 -1.10348e-31 -1.59028e-15 -3.97569e-15 1.95105 -7.53706 -3.87816 -2.37845e-16 16.6532 8.29949e-16 -2.70741 -21.2337 -3.53131 9.93923e-17 -1.59028e-15 -3.97569e-16 -3.58047e-16 8.98615 -1.20753e-15 6.79838 -6.84717 15.509 1.8326e-15 35.0377 -3.88453e-15 -6.24457 -19.3292 -5.98025 3.97569e-16 0.0 -0.0 3.97569e-16 -7.19019 -0.0
25.3644 88.9391 -62.005 -1.03374 0.332301 -178.347 -0.18226 -2.5042 -0.552457 -0.788966 3.48706 0.164416 -0.680455 -1.46471 -4.68878 2.58709 1.21656 -1.81317 1.76685 8.97656 -1.94728 0.476615 -4.30775 -2.75199 0.922393 -20.1872 -0.268729 90 0 0 76.6078 1.05523 -17.1789 -1.18513e-05 85.5773 33.411 21.1712 -9.8158 2.36724e-06 18.6339 -2.23188 0.752346 3.18055e-15 -3.18055e-15 6.36111e-15 3.18055e-15 -1.59028e-15 -6.36111e-15 -48.3982 -7.95139e-15 3.18055e-15 -6.36111e-15 6.36111e-15 -1.59028e-15 3.18055e-15 -1.59028e-15 1.59028e-15 -54.6762 -4.77083e-15 4.77083e-15 3.18055e-15 1.59028e-15 -0.0 3.18055e-15 4.77083e-15 -0.0 -36.6257 -7.95139e-15 7.95139e-15 -3.18055e-15 0.0 -3.97569e-15 -3.18055e-15 1.59028e-15 -2.38542e-15 112.725 -1.74931e-14 -9.54166e-15 0.0 0.0 -0.0 -6.36111e-15 3.18055e-15 -4.77083e-15 -90 0 0 -80.3251 18.6765 40.9923 180.0 87.2197 176.039 -13.1635 -13.9259 1.32329e-07 -44.452 -13.3849 -12.7952 -3.97569e-16 1.75148e-14 -7.95139e-16 3.47873e-16 1.44088e-14 1.59028e-15 -30.4664 3.97569e-16 -1.82882e-14 -4.77083e-15 3.57812e-15 3.18055e-15 1.59028e-15 -3.97569e-16 7.95139e-16 -92.1409 3.33958e-14 -2.8625e-14 -9.54166e-15 2.38542e-15 7.15625e-15 -2.20695e-32 1.59028e-15 7.95139e-16 -85.3821 2.8625e-14 -3.10104e-14 -9.54166e-15 -1.59028e-15 -5.56597e-15 -6.36111e-15 0.0 -6.36111e-15 -107.864 3.97569e-14 -2.66371e-14 -1.32417e-31 -1.59028e-15 -4.77083e-15 3.18055e-15 0.0 -7.95139e-16 1.92281 -8.11226 0.607994 -5.00654e-16 17.9078 -2.08906e-15 -1.5121 -20.9319 -0.372593 9.93923e-17 1.59028e-15 -7.95139e-16 -6.98111e-17 8.9916 -2.41509e-15 7.71833 -5.92378 21.2331 -2.08251e-15 37.9457 4.0332e-15 -8.77997 -17.901 -7.98004 1.59028e-15 -1.59028e-15 -0.0 -1.83191e-16 -10.348 -3.23314e-15
22.9569 89.0995 -60.5917 -1.93432 1.12598 175.826 0.588768 -2.23227 -0.672784 -0.399976 3.53689 0.0510529 -0.278645 -1.50767 -4.76479 3.19019 1.06123 -1.76776 1.88269 9.54453 -1.1536 0.175922 -3.39927 -0.717954 0.20322 -19.1694 -0.0937056 90 0 0 73.0112 3.38013 -22.8447 9.00147e-06 86.4417 26.7648 14.0039 -11.114 -6.74017e-07 23.3366 6.70969 -2.88568 6.36111e-15 0.0 -1.59028e-15 -3.18055e-15 1.59028e-15 -2.38542e-15 -38.1443 -7.95139e-15 7.95139e-15 -4.41391e-32 -1.59028e-15 -1.59028e-15 -8.82781e-32 -3.18055e-15 -1.59028e-15 -39.0327 -9.54166e-15 6.36111e-15 3.18055e-15 1.59028e-15 -1.59028e-15 8.82781e-32 1.59028e-15 -3.18055e-15 -22.0351 -6.36111e-15 3.97569e-15 -1.59028e-15 -3.18055e-15 7.95139e-16 1.59028e-15 -3.18055e-15 -0.0 18.1017 -6.36111e-15 -1.59028e-15 3.18055e-15 -6.36111e-15 -7.95139e-16 3.18055e-15 0.0 -2.38542e-15 -90 0 0 -83.3981 20.403 41.1259 180.0 87.1259 174.504 -12.7089 -13.4683 -7.18573e-09 -43.8907 -12.5336 -11.7921 -7.95139e-16 -1.32192e-14 -1.98785e-16 -7.95139e-16 -6.80837e-15 1.98785e-16 -25.167 3.97569e-16 -4.77083e-15 6.62086e-32 -1.19271e-15 3.18055e-15 -0.0 -1.19271e-15 -0.0 -96.7423 -4.77083e-15 -1.03368e-14 -6.36111e-15 -1.59028e-15 -1.59028e-15 -3.18055e-15 -3.18055e-15 7.95139e-16 -91.3717 -9.54166e-15 -7.95139e-15 3.18055e-15 -3.18055e-15 -0.0 3.18055e-15 -1.59028e-15 -0.0 -114.102 -1.59028e-15 -1.66979e-14 3.18055e-15 0.0 2.38542e-15 1.59028e-15 6.36111e-15 4.37326e-15 0.0625418 -9.41346 4.73724 2.58626e-16 18.9028 3.15174e-15 0.296697 -19.7894 1.60263 1.98785e-16 0.0 3.97569e-16 1.70563e-16 8.80154 -2.41384e-15 2.71231 -5.84299 7.37506 -7.65505e-16 37.7781 3.52103e-15 -6.3859 -17.5603 -6.96164 -2.48481e-16 1.59028e-15 -0.0 -1.06414e-15 -11.0719 1.51916e-16
19.7553 89.2478 -58.0621 -3.96483 0.788516 172.843 -0.50526 -2.11002 -0.913047 -0.313041 3.65899 0.0154684 -0.349913 -1.40645 -5.66719 3.39 0.961101 -2.00907 2.4404 7.96095 -1.26204 0.27304 -4.65421 0.0152325 0.158068 -20.4678 -0.0429675 90 0 0 72.9661 4.41991 -26.7828 6.4076e-05 87.2376 24.7386 16.2545 -9.72988 1.85531e-06 23.4232 6.7318 -2.90715 3.18055e-15 -1.59028e-15 -0.0 -6.36111e-15 0.0 3.18055e-15 -48.0306 4.77083e-15 -1.11319e-14 0.0 1.59028e-15 -0.0 9.54166e-15 4.77083e-15 -0.0 -47.6019 6.36111e-15 -1.27222e-14 -6.36111e-15 -3.18055e-15 -0.0 3.18055e-15 -1.59028e-15 -0.0 -32.2025 0.0 -7.95139e-15 3.18055e-15 0.0 -0.0 -3.18055e-15 -1.59028e-15 -2.38542e-15 1.21218 3.18055e-15 -1.19271e-15 3.18055e-15 -3.18055e-15 3.18055e-15 1.59028e-15 -6.36111e-15 -1.19271e-15 -90 0 0 -83.08 14.5063 44.8815 -0.000446678 89.7574 -7.78607 -15.0104 -14.0773 -7.37211e-07 -43.2818 -11.3277 -10.4801 1.10348e-32 -7.95139e-16 7.95139e-16 -6.36111e-15 -6.95746e-16 1.59028e-15 -12.7777 6.95746e-16 2.38542e-15 -3.18055e-15 9.93923e-17 -7.95139e-16 -3.18055e-15 1.09332e-15 3.18055e-15 -89.5409 -2.06736e-14 2.18663e-14 3.18055e-15 1.59028e-15 3.18055e-15 3.18055e-15 -3.97569e-15 -3.97569e-16 -93.954 -2.14687e-14 2.40529e-14 -3.18055e-15 -1.59028e-15 1.39149e-15 -3.18055e-15 0.0 5.96354e-16 -118.133 -3.02153e-14 1.99282e-14 1.19271e-15 1.59028e-15 -5.46658e-16 -0.0 0.0 2.5345e-15 -3.60107 -13.1622 5.5409 -2.70009e-17 20.5066 -2.33457e-15 2.62134 -18.2489 4.15638 2.48481e-16 0.0 -0.0 -9.93923e-17 8.75312 -0.0 -1.53218 -3.71479 12.6283 -1.71123e-15 30.1318 4.59685e-15 -3.51019 -19.0774 -5.87945 2.48481e-17 7.95139e-16 -1.98785e-16 -3.8834e-16 -6.01437 7.9954e-16
17.3821 88.8993 -53.8658 -4.69271 0.34227 171.726 -2.3412 -0.617365 -0.981699 -0.413041 4.00321 0.0651143 -0.44464 -1.11588 -5.02156 3.00602 1.1658 -1.87579 1.24643 6.94651 -0.500776 -1.26135 -7.03415 0.0518854 -1.73614 -23.0677 -0.0274826 90 0 0 75.5848 2.33075 -25.9797 -2.55264e-05 86.5681 26.4872 15.8513 -9.65207 1.03421e-07 21.1448 2.87441 -1.11112 1.32417e-31 4.77083e-15 -1.59028e-15 -3.18055e-15 0.0 -3.18055e-15 -47.7185 4.77083e-15 -1.59028e-14 -6.36111e-15 0.0 4.77083e-15 -6.36111e-15 1.59028e-15 -3.18055e-15 -48.6581 7.95139e-15 -1.59028e-14 8.82781e-32 -1.59028e-15 3.18055e-15 0.0 0.0 -1.59028e-15 -31.1337 -3.18055e-15 -1.59028e-14 8.82781e-32 -3.18055e-15 1.59028e-15 -6.36111e-15 -3.18055e-15 4.77083e-15 27.7243 3.18055e-15 3.18055e-15 -2.64834e-31 3.18055e-15 4.77083e-15 -3.18055e-15 3.18055e-15 -0.0 -90 0 0 -81.9302 9.56713 39.1922 -180.0 87.9552 168.618 -13.7777 -13.2084 -2.20723e-07 -42.4295 -9.05416 -8.18557 -1.59028e-15 5.1684e-15 -0.0 -8.82781e-32 3.18055e-15 1.59028e-15 -15.8295 1.98785e-15 3.18055e-15 1.10348e-32 7.95139e-16 -7.95139e-16 -1.59028e-15 -2.78299e-15 7.95139e-16 -87.9773 -6.36111e-15 1.11319e-14 1.10348e-32 7.95139e-16 -7.95139e-16 3.18055e-15 0.0 3.18055e-15 -92.7749 -9.54166e-15 7.15625e-15 -3.18055e-15 0.0 3.97569e-15 -3.18055e-15 -2.38542e-15 -2.38542e-15 -117.538 -1.19271e-14 1.10822e-14 -3.97569e-16 0.0 4.32357e-15 -3.97569e-16 0.0 4.32357e-15 -5.63044 -17.4651 4.04529 1.61654e-15 21.4588 1.02523e-14 4.38089 -15.4575 6.77766 3.47873e-16 0.0 3.97569e-16 1.49089e-16 8.45202 -0.0 -4.5888 -3.61978 12.1588 4.73653e-17 23.4883 -8.66975e-16 -0.656773 -21.376 -3.19483 6.52262e-17 0.0 -0.0 -1.30452e-16 0.0999178 -0.0
15.6145 89.1355 -48.2739 -7.22243 -0.8136 172.604 -7.35793 1.10042 -0.732104 -1.01685 4.22053 0.286361 -1.31159 -1.00374 -4.64137 1.97627 1.39808 -1.91833 0.499977 7.36567 -0.71456 -1.47421 -6.49104 -1.63762 -1.65804 -22.5638 -0.140379 90 0 0 77.8819 2.64112 -25.5574 -179.999 89.9316 -157.363 13.688 -11.4008 3.84613e-07 21.8807 1.50099 -0.602714 0.0 0.0 -0.0 -9.54166e-15 0.0 -0.0 -47.5628 3.18055e-15 -3.18055e-15 -3.18055e-15 0.0 -1.59028e-15 -0.0 0.0 1.59028e-15 -47.9084 0.0 -0.0 6.36111e-15 3.18055e-15 1.59028e-15 -0.0 0.0 4.77083e-15 -29.8021 -3.18055e-15 -1.59028e-15 0.0 0.0 -1.59028e-15 3.18055e-15 -6.36111e-15 -0.0 15.7019 0.0 1.59028e-15 6.36111e-15 -3.18055e-15 1.59028e-15 0.0 0.0 -3.18055e-15 -90 0 0 -76.971 8.89474 36.1493 -180.0 87.5346 167.195 -13.3326 -14.2227 1.51651e-07 -41.9718 -7.69838 -6.87085 -0.0 -1.19271e-15 -0.0 -3.18055e-15 -7.95139e-16 -3.18055e-15 -16.0287 0.0 4.77083e-15 -3.18055e-15 -3.97569e-16 3.18055e-15 1.98626e-31 -7.15625e-15 1.59028e-15 -86.0679 -1.43125e-14 1.35174e-14 -3.18055e-15 4.77083e-15 3.97569e-15 -1.32417e-31 3.18055e-15 2.38542e-15 -92.2219 -1.59028e-14 1.43125e-14 1.76556e-31 -1.59028e-15 6.36111e-15 -6.36111e-15 3.18055e-15 -0.0 -117.107 -1.74931e-14 1.25234e-14 1.21382e-31 -1.59028e-15 4.37326e-15 -2.38542e-15 -1.59028e-15 -1.98785e-15 -9.76157 -20.7155 -0.606157 -1.89067e-17 18.2304 -5.02295e-15 4.54434 -11.6683 7.88671 2.17421e-17 -1.59028e-15 -6.21202e-18 -2.77868e-16 3.38093 -1.55571e-15 -8.23028 -6.6269 10.3735 -6.33791e-16 18.9747 2.10207e-15 0.642494 -17.7616 -2.33139 -1.18028e-16 7.95139e-16 -9.93923e-17 -1.28973e-16 0.852691 -9.94033e-17
